<svg width="16" height="16" viewBox="0 0 16 16" fill="none" xmlns="http://www.w3.org/2000/svg">
  <path d="M8 1C4.13401 1 1 4.13401 1 8C1 11.866 4.13401 15 8 15C11.866 15 15 11.866 15 8C15 4.13401 11.866 1 8 1ZM0 8C0 3.58172 3.58172 0 8 0C12.4183 0 16 3.58172 16 8C16 12.4183 12.4183 16 8 16C3.58172 16 0 12.4183 0 8Z" fill="black" style="fill:black;fill-opacity:1;"/>
  <path d="M10.8536 5.85355L8.70711 8L10.8536 10.1464L10.1464 10.8536L8 8.70711L5.85355 10.8536L5.14645 10.1464L7.29289 8L5.14645 5.85355L5.85355 5.14645L8 7.29289L10.1464 5.14645L10.8536 5.85355Z" fill="black" style="fill:black;fill-opacity:1;"/>
</svg>
