<svg width="18" height="18" viewBox="0 0 18 18" fill="none" xmlns="http://www.w3.org/2000/svg">
<path d="M10.125 15.75C11.46 15.75 12.7651 15.3541 13.8751 14.6124C14.9851 13.8707 15.8503 12.8165 16.3612 11.5831C16.8721 10.3497 17.0058 8.99252 16.7453 7.68314C16.4848 6.37377 15.842 5.17104 14.898 4.22703C13.954 3.28303 12.7512 2.64015 11.4419 2.3797C10.1325 2.11925 8.77529 2.25292 7.54189 2.76382C6.30849 3.27471 5.25428 4.13987 4.51258 5.2499C3.77088 6.35994 3.375 7.66498 3.375 9V12.4875L1.35 10.4625L0.5625 11.25L3.9375 14.625L7.3125 11.25L6.525 10.4625L4.5 12.4875V9C4.5 7.88748 4.8299 6.79995 5.44798 5.87492C6.06607 4.94989 6.94457 4.22892 7.97241 3.80318C9.00024 3.37744 10.1312 3.26604 11.2224 3.48309C12.3135 3.70013 13.3158 4.23586 14.1025 5.02253C14.8891 5.8092 15.4249 6.81148 15.6419 7.90262C15.859 8.99376 15.7476 10.1248 15.3218 11.1526C14.8961 12.1804 14.1751 13.0589 13.2501 13.677C12.3251 14.2951 11.2375 14.625 10.125 14.625V15.75Z" fill="white" style="fill:white;fill-opacity:1;"/>
</svg>
