<svg width="18" height="18" viewBox="0 0 18 18" fill="none" xmlns="http://www.w3.org/2000/svg">
  <path d="M6.75 2.25C7.30626 2.25 7.85003 2.41495 8.31254 2.72399C8.77505 3.03303 9.13554 3.47229 9.34841 3.9862C9.56128 4.50012 9.61698 5.06562 9.50846 5.61119C9.39994 6.15676 9.13207 6.6579 8.73874 7.05124C8.3454 7.44457 7.84426 7.71244 7.29869 7.82096C6.75312 7.92948 6.18762 7.87378 5.6737 7.66091C5.15979 7.44804 4.72053 7.08755 4.41149 6.62504C4.10245 6.16253 3.9375 5.61876 3.9375 5.0625C3.9375 4.31658 4.23382 3.60121 4.76126 3.07376C5.28871 2.54632 6.00408 2.25 6.75 2.25ZM6.75 1.125C5.97124 1.125 5.20996 1.35593 4.56244 1.78859C3.91492 2.22125 3.41024 2.8362 3.11222 3.55568C2.8142 4.27517 2.73623 5.06687 2.88816 5.83067C3.04009 6.59447 3.4151 7.29606 3.96577 7.84673C4.51644 8.3974 5.21803 8.77241 5.98183 8.92434C6.74563 9.07627 7.53733 8.9983 8.25682 8.70028C8.9763 8.40226 9.59125 7.89758 10.0239 7.25006C10.4566 6.60254 10.6875 5.84126 10.6875 5.0625C10.6875 4.01821 10.2727 3.01669 9.53423 2.27827C8.79581 1.53984 7.79429 1.125 6.75 1.125Z" fill="black" style="fill:black;fill-opacity:1;"/>
  <path d="M12.375 16.875H11.25V14.0625C11.25 13.3166 10.9537 12.6012 10.4262 12.0738C9.89879 11.5463 9.18342 11.25 8.4375 11.25H5.0625C4.31658 11.25 3.60121 11.5463 3.07376 12.0738C2.54632 12.6012 2.25 13.3166 2.25 14.0625V16.875H1.125V14.0625C1.125 13.0182 1.53984 12.0167 2.27827 11.2783C3.01669 10.5398 4.01821 10.125 5.0625 10.125H8.4375C9.48179 10.125 10.4833 10.5398 11.2217 11.2783C11.9602 12.0167 12.375 13.0182 12.375 14.0625V16.875Z" fill="black" style="fill:black;fill-opacity:1;"/>
  <path d="M14.0625 9.10125L12.6056 7.64438L11.8125 8.4375L14.0625 10.6875L18 6.75L17.2069 5.95688L14.0625 9.10125Z" fill="black" style="fill:black;fill-opacity:1;"/>
</svg>
